<?xml version="1.0" encoding="UTF-8" standalone="no"?>
<svg
   height="48"
   width="48"
   version="1.1"
   id="svg4"
   sodipodi:docname="tpr_dictionary.svg"
   inkscape:version="1.1.2 (0a00cf5339, 2022-02-04)"
   inkscape:export-filename="/mnt/Data/git/tipitaka-pali-reader/assets/icon/tpr_dictionary.png"
   inkscape:export-xdpi="96"
   inkscape:export-ydpi="96"
   xmlns:inkscape="http://www.inkscape.org/namespaces/inkscape"
   xmlns:sodipodi="http://sodipodi.sourceforge.net/DTD/sodipodi-0.dtd"
   xmlns="http://www.w3.org/2000/svg"
   xmlns:svg="http://www.w3.org/2000/svg">
  <defs
     id="defs8" />
  <sodipodi:namedview
     id="namedview6"
     pagecolor="#ffffff"
     bordercolor="#666666"
     borderopacity="1.0"
     inkscape:pageshadow="2"
     inkscape:pageopacity="0.0"
     inkscape:pagecheckerboard="0"
     showgrid="false"
     showguides="true"
     inkscape:guide-bbox="true"
     inkscape:zoom="17.083334"
     inkscape:cx="40.360974"
     inkscape:cy="33.336584"
     inkscape:window-width="1846"
     inkscape:window-height="1009"
     inkscape:window-x="74"
     inkscape:window-y="34"
     inkscape:window-maximized="1"
     inkscape:current-layer="svg4">
    <sodipodi:guide
       position="31.705978,20.350401"
       orientation="0,-1"
       id="guide8913" />
    <sodipodi:guide
       position="34.023908,27.304192"
       orientation="0,-1"
       id="guide8915" />
  </sodipodi:namedview>
  <path
     d="m 11.54859,33.637828 q 2.893062,0 5.59861,0.669689 2.705548,0.669691 5.330733,2.009072 V 13.439975 Q 20.06705,11.83272 17.254352,10.94873 q -2.8127,-0.883992 -5.705762,-0.883992 -2.0358571,0 -3.991352,0.508966 -1.9554938,0.508965 -3.9377764,1.259016 V 35.084358 Q 5.2802923,34.334305 7.3965114,33.986065 9.5127329,33.637828 11.54859,33.637828 Z m 14.143856,2.678761 q 2.67876,-1.339381 5.25037,-2.009072 2.57161,-0.669689 5.464671,-0.669689 2.035858,0 4.205652,0.32145 2.169796,0.321452 3.723478,0.857203 V 11.83272 q -1.821558,-0.910779 -3.857416,-1.339381 -2.035856,-0.428601 -4.071714,-0.428601 -2.893061,0 -5.59861,0.883992 -2.705547,0.88399 -5.116431,2.491245 z m -1.607256,4.23244 q -0.428602,0 -0.77684,-0.08037 -0.34824,-0.08037 -0.616116,-0.294663 -2.518033,-1.553681 -5.35752,-2.410884 -2.839485,-0.857204 -5.786124,-0.857204 -1.9822791,0 -3.8574133,0.482176 Q 5.816044,37.870265 3.9409124,38.566743 2.7086828,39.156071 1.5568144,38.406016 0.40494912,37.655962 0.40494912,36.26301 V 11.457694 q 0,-0.803629 0.375024,-1.47332 Q 1.1549993,9.3146858 1.9050547,8.9396595 4.1552122,7.8681499 6.5928833,7.3591882 9.0305559,6.8502231 11.54859,6.8502231 q 3.37524,0 6.562964,0.9107769 3.187725,0.910783 5.973636,2.785916 2.732335,-1.875133 5.866484,-2.785916 3.134149,-0.9107769 6.455813,-0.9107769 2.518034,0 4.928918,0.5089651 2.410885,0.5089617 4.661043,1.5804713 0.750051,0.3750263 1.151865,1.0447145 0.401815,0.669691 0.401815,1.47332 v 24.805321 q 0,1.500104 -1.205442,2.276944 -1.205441,0.776841 -2.384096,0.02679 -1.821558,-0.750053 -3.696689,-1.205442 -1.875132,-0.45539 -3.857414,-0.45539 -2.893061,0 -5.678972,0.857203 -2.785911,0.857202 -5.250369,2.410884 -0.267877,0.214301 -0.616114,0.294662 -0.348241,0.08037 -0.776842,0.08037 z M 13.048698,23.512114 Z"
     id="path2-4-6"
     style="stroke-width:3.98631;stroke-miterlimit:4;stroke-dasharray:none"
     inkscape:export-filename="/mnt/Data/git/tipitaka-pali-reader/assets/icon/text20604-0-7.png"
     inkscape:export-xdpi="96"
     inkscape:export-ydpi="96" />
  <text
     xml:space="preserve"
     style="font-style:normal;font-weight:normal;font-size:18.1913px;line-height:1.25;font-family:sans-serif;vector-effect:non-scaling-stroke;fill:#000000;fill-opacity:1;stroke:none;stroke-width:0.00255125;stroke-miterlimit:4;stroke-dasharray:none;-inkscape-stroke:hairline"
     x="5.6776209"
     y="29.81035"
     id="text20604-0-7"
     inkscape:export-filename="/mnt/Data/git/tipitaka-pali-reader/assets/icon/text20604-0-7.png"
     inkscape:export-xdpi="96"
     inkscape:export-ydpi="96"><tspan
       sodipodi:role="line"
       id="tspan20602-3-5"
       x="5.6776209"
       y="29.81035"
       style="vector-effect:non-scaling-stroke;stroke-width:0.00255125;stroke-miterlimit:4;stroke-dasharray:none;-inkscape-stroke:hairline">A</tspan></text>
  <text
     xml:space="preserve"
     style="font-style:normal;font-weight:normal;font-size:18.1913px;line-height:1.25;font-family:sans-serif;fill:#000000;fill-opacity:1;stroke:none;stroke-width:0.400625;stroke-miterlimit:4;stroke-dasharray:none"
     x="29.703794"
     y="29.948267"
     id="text20604-0-7-9"
     inkscape:export-filename="/mnt/Data/git/tipitaka-pali-reader/assets/icon/text20604-0-7.png"
     inkscape:export-xdpi="96"
     inkscape:export-ydpi="96"><tspan
       sodipodi:role="line"
       id="tspan20602-3-5-6"
       x="29.703794"
       y="29.948267"
       style="stroke-width:0.400625;stroke-miterlimit:4;stroke-dasharray:none">Z</tspan></text>
</svg>
